<svg width="0" height="0" class="hidden">
  <symbol version="1.1" id="time" xmlns="http://www.w3.org/2000/svg" xmlns:xlink="http://www.w3.org/1999/xlink" x="0px" y="0px" xml:space="preserve" viewBox="0 0 338.784 338.784">
    <g>
      <g>
        <g>
          <path d="M18.93,168.462C18.93,85.497,86.427,18,169.392,18c41.483,0,80.871,17.046,109.254,47.017h-7.688c-4.971,0-9,4.029-9,9
				c0,4.971,4.029,9,9,9h30.522c4.971,0,9-4.029,9-9V43.494c0-4.971-4.029-9-9-9s-9,4.029-9,9v9.971
				C260.649,19.401,216.217,0,169.392,0C76.502,0,0.93,75.572,0.93,168.462c0,40.967,14.882,80.454,41.903,111.188
				c1.779,2.023,4.264,3.057,6.763,3.057c2.109,0,4.229-0.738,5.938-2.241c3.733-3.282,4.099-8.969,0.816-12.702
				C32.22,240.318,18.93,205.052,18.93,168.462z"></path>
          <path d="M327.121,109.168c-1.75-4.653-6.943-7.006-11.592-5.256c-4.652,1.75-7.006,6.939-5.256,11.592
				c6.357,16.905,9.581,34.723,9.581,52.958c0,82.965-67.497,150.461-150.462,150.461c-24.007,0-47.843-5.792-69.014-16.738
				l8.134-2.88c4.685-1.66,7.138-6.803,5.479-11.488c-1.659-4.687-6.808-7.138-11.488-5.479l-28.771,10.189
				c-4.685,1.66-7.138,6.803-5.479,11.488l10.189,28.771c1.308,3.692,4.777,5.998,8.483,5.998c0.997,0,2.012-0.167,3.005-0.519
				c4.685-1.66,7.138-6.803,5.479-11.488l-2.993-8.45c23.641,12.16,50.217,18.596,76.976,18.596
				c92.891,0,168.462-75.571,168.462-168.461C337.854,148.056,334.243,128.106,327.121,109.168z"></path>
          <path d="M169.392,56.371c-61.132,0-110.866,49.734-110.866,110.866c0,61.131,49.734,110.866,110.866,110.866
				s110.866-49.734,110.866-110.866C280.259,106.105,230.524,56.371,169.392,56.371z M254.504,176.237h7.317
				c-4.255,44.037-39.392,79.174-83.429,83.429v-7.317c0-4.971-4.029-9-9-9c-4.971,0-9,4.029-9,9v7.317
				c-44.037-4.255-79.174-39.392-83.429-83.428h7.317c4.971,0,9-4.029,9-9s-4.029-9-9-9h-7.317
				c4.255-44.037,39.392-79.174,83.429-83.429v7.317c0,4.971,4.029,9,9,9c4.971,0,9-4.029,9-9v-7.317
				c44.037,4.255,79.174,39.392,83.429,83.428h-7.317c-4.971,0-9,4.029-9,9C245.504,172.208,249.533,176.237,254.504,176.237z"></path>
          <path d="M209.864,167.286h-6.303h-25.169v-35.939v-12.851c0-4.971-4.029-9-9-9c-4.971,0-9,4.029-9,9v57.79c0,4.971,4.029,9,9,9
				h40.472c4.971,0,9-4.029,9-9S214.835,167.286,209.864,167.286z"></path>
        </g>
      </g>
    </g>
    <g></g>
    <g></g>
    <g></g>
    <g></g>
    <g></g>
    <g></g>
    <g></g>
    <g></g>
    <g></g>
    <g></g>
    <g></g>
    <g></g>
    <g></g>
    <g></g>
    <g></g>
  </symbol>
  <symbol version="1.1" id="fingerprint" xmlns="http://www.w3.org/2000/svg" xmlns:xlink="http://www.w3.org/1999/xlink" x="0px" y="0px" xml:space="preserve" viewBox="0 0 512 512">
    <g>
      <g>
        <path d="M256,4.74c-141.16,0-256,114.84-256,256c0,31.421,5.632,62.116,16.736,91.229c1.442,3.78,5.042,6.104,8.861,6.104
			c1.123,0,2.266-0.201,3.377-0.625c4.891-1.866,7.345-7.345,5.479-12.238c-10.278-26.947-15.491-55.366-15.491-84.47
			C18.963,130.036,125.296,23.703,256,23.703S493.037,130.036,493.037,260.74c0,5.236,4.245,9.481,9.481,9.481
			c5.236,0,9.482-4.245,9.482-9.481C512,119.58,397.16,4.74,256,4.74z"></path>
      </g>
    </g>
    <g>
      <g>
        <path d="M256.132,52.147c-56.908,0-115.863,27.535-157.602,73.655c-36.968,40.847-55.595,90.375-51.044,135.882l1.053,10.648
			c7.407,73.761,7.398,73.761-6.509,101.278c-0.968,1.917-2.002,3.958-3.099,6.148c-2.34,4.685-0.444,10.38,4.238,12.722
			c1.361,0.681,2.806,1.002,4.232,1.002c3.477,0,6.826-1.921,8.488-5.243c1.081-2.164,2.1-4.181,3.058-6.076
			c16.405-32.456,16.257-33.942,8.444-111.725l-1.067-10.643c-4.018-40.185,12.819-84.387,46.199-121.269
			c38.201-42.215,91.97-67.417,143.609-67.417c104.565,0,189.764,85.067,189.764,189.63v47.407c0,5.236,4.245,9.481,9.482,9.481
			s9.482-4.245,9.482-9.481V260.74C464.859,145.721,371.15,52.147,256.132,52.147z"></path>
      </g>
    </g>
    <g>
      <g>
        <path d="M315.345,110.832c-18.886-7.484-38.854-11.278-59.345-11.278c-43.215,0-83.683,16.551-113.951,46.604
			c-30.459,30.245-47.234,70.937-47.234,114.581c0,24.213,2.231,45.329,4.201,63.958c5.083,48.111,7.884,74.614-28.424,98.82
			c-4.356,2.905-5.535,8.792-2.629,13.148c1.826,2.741,4.833,4.222,7.898,4.222c1.806,0,3.634-0.514,5.25-1.592
			c45.852-30.567,41.84-68.53,36.762-116.588c-1.919-18.167-4.095-38.755-4.095-61.968c0-79.75,62.472-142.222,142.222-142.222
			c18.09,0,35.706,3.345,52.359,9.944c4.863,1.926,10.377-0.454,12.308-5.322C322.595,118.272,320.213,112.76,315.345,110.832z"></path>
      </g>
    </g>
    <g>
      <g>
        <path d="M417.185,260.374c-0.118-51.748-25.315-100.613-67.456-130.782c-4.257-3.046-10.18-2.069-13.229,2.192
			c-3.046,4.257-2.067,10.181,2.192,13.229c37.275,26.685,59.53,69.947,59.53,115.727c0,0.243,0.009,0.486,0.028,0.727
			c0.093,1.217,9.139,122.623-9.227,196.086c-1.268,5.079,1.819,10.227,6.901,11.498c0.771,0.192,1.544,0.285,2.305,0.285
			c4.248,0,8.114-2.875,9.192-7.185C426.211,386.992,417.847,269.216,417.185,260.374z"></path>
      </g>
    </g>
    <g>
      <g>
        <path d="M362.91,221.716c-16.324-44.713-59.289-74.755-106.91-74.755c-62.736,0-113.778,51.039-113.778,113.778
			c0,0.393,0.025,0.787,0.074,1.176c0.093,0.745,9.218,75.336,0.021,139.706c-0.741,5.183,2.861,9.986,8.047,10.727
			c0.454,0.065,0.905,0.097,1.352,0.097c4.641,0,8.699-3.414,9.375-8.143c9.208-64.458,1.046-136.236,0.097-144.128
			c0.303-52.021,42.72-94.25,94.812-94.25c39.688,0,75.493,25.035,89.095,62.296c1.796,4.919,7.246,7.444,12.16,5.655
			C362.174,232.08,364.704,226.635,362.91,221.716z"></path>
      </g>
    </g>
    <g>
      <g>
        <path d="M256.132,194.369c-36.597,0-66.435,29.773-66.435,66.37c0,0.37-0.014,0.741,0.03,1.106
			c0.185,1.577,17.963,158.327-26.759,220.938c-3.044,4.262-2.065,10.183,2.197,13.227c1.671,1.194,3.592,1.766,5.5,1.766
			c2.956,0,5.87-1.38,7.72-3.97c47.991-67.187,31.632-221.102,30.211-233.588c0.28-25.903,21.572-46.887,47.539-46.887
			c26.141,0,47.539,21.266,47.539,47.407v66.37c0,5.236,4.245,9.482,9.482,9.482s9.482-4.245,9.482-9.482v-66.37
			C322.637,224.142,292.729,194.369,256.132,194.369z"></path>
      </g>
    </g>
    <g>
      <g>
        <path d="M455.995,331.138c-5.16-0.456-9.817,3.401-10.271,8.618l-5.785,66.118c-0.458,5.218,3.401,9.815,8.618,10.271
			c0.28,0.025,0.56,0.037,0.838,0.037c4.861,0,9.002-3.72,9.433-8.655l5.785-66.118
			C465.072,336.191,461.213,331.594,455.995,331.138z"></path>
      </g>
    </g>
    <g>
      <g>
        <path d="M147.481,432.999c-4.354-2.905-10.243-1.727-13.148,2.63l-18.963,28.444c-2.905,4.357-1.727,10.243,2.629,13.148
			c1.616,1.078,3.442,1.592,5.25,1.592c3.065,0,6.072-1.482,7.898-4.222l18.963-28.444
			C153.016,441.791,151.838,435.904,147.481,432.999z"></path>
      </g>
    </g>
    <g>
      <g>
        <path d="M369.567,258.753c-1.095-5.12-6.139-8.382-11.257-7.285c-5.12,1.097-8.382,6.137-7.285,11.257
			c0.278,1.296,27.222,130.539-18.174,221.329c-2.34,4.685-0.442,10.38,4.241,12.722c1.361,0.68,2.808,1.002,4.234,1.002
			c3.477,0,6.826-1.921,8.488-5.243C398.153,395.858,370.757,264.307,369.567,258.753z"></path>
      </g>
    </g>
    <g>
      <g>
        <path d="M265.199,248.96c-1.273-5.083-6.431-8.164-11.498-6.9c-5.081,1.271-8.169,6.419-6.901,11.498
			c0.183,0.734,17.979,74.12-9.278,155.889c-1.655,4.968,1.03,10.336,5.997,11.993c0.993,0.331,2.005,0.489,3,0.489
			c3.968,0,7.669-2.512,8.993-6.486C284.498,328.49,266,252.165,265.199,248.96z"></path>
      </g>
    </g>
    <g>
      <g>
        <path d="M240.558,441.566c-4.856-1.945-10.377,0.416-12.324,5.282l-18.963,47.407c-1.944,4.861,0.419,10.38,5.282,12.324
			c1.155,0.463,2.345,0.681,3.519,0.681c3.762,0,7.322-2.255,8.806-5.963l18.963-47.407
			C247.785,449.029,245.421,443.511,240.558,441.566z"></path>
      </g>
    </g>
    <g>
      <g>
        <path d="M312.898,364.663c-0.005,0-0.007,0-0.009,0c-5.229,0-9.472,4.426-9.482,9.655c0,0.553-0.412,56.009-27.678,119.63
			c-2.062,4.813,0.167,10.435,4.982,12.498c1.218,0.521,2.484,0.791,3.729,0.791c3.678,0,7.178-2.141,8.72-5.738
			c28.879-67.384,29.211-124.773,29.211-127.176C322.37,369.089,318.13,364.663,312.898,364.663z"></path>
      </g>
    </g>
    <g></g>
    <g></g>
    <g></g>
    <g></g>
    <g></g>
    <g></g>
    <g></g>
    <g></g>
    <g></g>
    <g></g>
    <g></g>
    <g></g>
    <g></g>
    <g></g>
    <g></g>
  </symbol>
  <symbol version="1.1" id="like" xmlns="http://www.w3.org/2000/svg" xmlns:xlink="http://www.w3.org/1999/xlink" x="0px" y="0px" xml:space="preserve" viewBox="0 0 66.831 66.831">
    <g>
      <path d="M51.735,20h-2.934c1.419-3.934,2.799-9.714,0.942-14.247c-1.095-2.673-3.177-4.574-6.021-5.496
		C43.197,0.086,42.651,0,42.101,0c-3.701,0-7.05,3.613-11.944,12.888c-2.199,4.171-5.364,7.683-7.593,9.577
		c-0.946,0.804-1.702,1.624-2.315,2.431c-1.69-2.512-4.558-4.167-7.806-4.167c-5.185,0-9.404,4.219-9.404,9.404v27.294
		c0,5.186,4.219,9.404,9.404,9.404c3.406,0,6.386-1.827,8.036-4.546c2.212,2.728,5.586,4.477,9.364,4.477h23.023
		c9.507,0,10.926-6.136,10.926-9.793v-24.91C63.793,25.41,58.384,20,51.735,20z M15.847,57.427c0,1.877-1.527,3.404-3.403,3.404
		c-1.877,0-3.404-1.527-3.404-3.404V30.133c0-1.877,1.527-3.404,3.404-3.404c1.876,0,3.403,1.527,3.403,3.404V57.427z
		 M57.793,56.969c0,2.221-0.354,3.793-4.926,3.793H29.844c-3.34,0-6.058-2.717-6.058-6.057V32.059l0.008-0.095l-0.021-0.176
		c-0.006-0.096-0.106-2.386,2.676-4.75c2.656-2.258,6.419-6.425,9.015-11.351c4.132-7.83,6.104-9.353,6.639-9.641
		c1.039,0.388,1.688,1.007,2.087,1.981c1.293,3.156-0.331,9.224-2.603,13.587l-2.283,4.385h12.43c3.341,0,6.059,2.718,6.059,6.059
		V56.969z"></path>
    </g>
    <g></g>
    <g></g>
    <g></g>
    <g></g>
    <g></g>
    <g></g>
    <g></g>
    <g></g>
    <g></g>
    <g></g>
    <g></g>
    <g></g>
    <g></g>
    <g></g>
    <g></g>
  </symbol>
  <symbol xmlns="http://www.w3.org/2000/svg" xml:space="preserve" version="1.1" xmlns:xlink="http://www.w3.org/1999/xlink" xmlnsXodm="http://www.corel.com/coreldraw/odm/2003" viewBox="0 0 142.49 138.47" id="search-approved">
    <defs></defs>
    <g id="Layer_x0020_1">
  <metadata id="CorelCorpID_0Corel-Layer"/>
  <path class="fil0" d="M92.92 7.97c8.1,5.65 13.72,13.53 16.63,22.23l23.86 -9.42c2.86,-1.13 6.13,0.28 7.26,3.14l0 0c1.13,2.86 -0.29,6.13 -3.15,7.26l-67.96 26.83 -0.01 0 0 0 0 0c-0.04,0.02 -0.08,0.04 -0.13,0.06l0 0c-0.04,0.01 -0.09,0.03 -0.13,0.04l0 0 -0.14 0.05 -0.14 0.04 0 0 -0.13 0.03 0 0 -0.14 0.04 0 0 -0.14 0.03 0 0 -0.13 0.02 -0.14 0.02 0 0 -0.14 0.02 -0.13 0.02 -0.14 0.01 -0.14 0.01 -0.13 0 -0.14 0 -0.14 0 -0.13 0 -0.14 -0.01 -0.13 -0.01 -0.14 -0.02 -0.13 -0.02 0 0 -0.14 -0.02 0 0 -0.13 -0.02 0 0 -0.13 -0.03 0 0 -0.13 -0.03 0 0 -0.13 -0.04 0 0 -0.13 -0.03 0 0 -0.13 -0.04 0 0c-0.09,-0.03 -0.17,-0.06 -0.25,-0.09l0 0c-0.09,-0.03 -0.17,-0.07 -0.25,-0.1l0 0 -0.13 -0.06 -0.12 -0.06 0 0 -0.12 -0.06 -0.11 -0.06 0 0 -0.12 -0.07c-0.08,-0.04 -0.16,-0.09 -0.23,-0.14l0 0 -0.11 -0.07 -0.11 -0.08 0 0 -0.11 -0.08 -0.11 -0.08 0 0 -0.1 -0.09 -0.11 -0.09 0 0 -0.1 -0.09 0 0 -0.1 -0.09 0 0 -0.09 -0.1 0 0c-0.1,-0.09 -0.19,-0.19 -0.28,-0.3l0 0 -0.09 -0.1 -0.08 -0.11 -0.08 -0.11 0 0 -0.08 -0.12 0 0 -0.08 -0.11 -0.08 -0.12 0 0 -0.07 -0.12 -0.07 -0.12 -0.06 -0.12 -0.07 -0.13 -0.06 -0.13 -0.06 -0.13 -0.05 -0.13 0 0 0 -0.01 -6.85 -17.34c-1.13,-2.86 0.29,-6.13 3.15,-7.26l0 0c2.86,-1.13 6.12,0.29 7.25,3.15l4.8 12.15 28.19 -11.13c-2.09,-6.67 -6.32,-12.73 -12.5,-17.04 -14.82,-10.35 -35.24,-6.72 -45.59,8.1 -10.35,14.83 -6.72,35.24 8.1,45.6 14.83,10.35 35.24,6.72 45.6,-8.11 2.73,-3.91 4.49,-8.21 5.32,-12.61l12.04 -4.75c-0.25,8.3 -2.83,16.62 -7.94,23.94 -12.96,18.56 -37.57,24.13 -57.05,13.73 0.77,2.49 0.44,5.3 -1.16,7.59l-29.82 42.7c-2.74,3.93 -8.2,4.9 -12.12,2.16l-0.01 0c-3.92,-2.74 -4.89,-8.2 -2.15,-12.13l29.82 -42.71c1.6,-2.28 4.12,-3.57 6.72,-3.7 -16.47,-14.7 -19.72,-39.73 -6.77,-58.28 13.99,-20.04 41.56,-24.94 61.59,-10.95z"/>
 </g>
  </symbol>
</svg>